<?xml version="1.0" encoding="utf-8"?>
<!-- Generator: Adobe Illustrator 16.0.0, SVG Export Plug-In . SVG Version: 6.00 Build 0)  -->
<!DOCTYPE svg PUBLIC "-//W3C//DTD SVG 1.1//EN" "http://www.w3.org/Graphics/SVG/1.1/DTD/svg11.dtd">
<svg version="1.1" id="Layer_1" xmlns="http://www.w3.org/2000/svg" xmlns:xlink="http://www.w3.org/1999/xlink" x="0px" y="0px"
	 width="24px" height="24px" viewBox="0 0 24 24" style="enable-background:new 0 0 24 24;" xml:space="preserve">
<linearGradient id="SVGID_1_" gradientUnits="userSpaceOnUse" x1="12" y1="23.1006" x2="12" y2="4.0996" gradientTransform="matrix(1 0 0 -1 0 25)">
	<stop  offset="0" style="stop-color:#90C50E"/>
	<stop  offset="1" style="stop-color:#70A034"/>
</linearGradient>
<path style="fill:url(#SVGID_1_);" d="M22,20.9c1.1,0,2-1.101,2-2.2v-15c0-1.1-0.9-1.8-2-1.8H2c-1.1,0-2,0.7-2,1.8v15
	c0,1.1,0.887,2.176,1.987,2.176L22,20.9z"/>
<linearGradient id="SVGID_2_" gradientUnits="userSpaceOnUse" x1="12" y1="22.1006" x2="12" y2="5.0996" gradientTransform="matrix(1 0 0 -1 0 25)">
	<stop  offset="0" style="stop-color:#D9F991"/>
	<stop  offset="0.2388" style="stop-color:#D7F88D"/>
	<stop  offset="0.4501" style="stop-color:#D1F383"/>
	<stop  offset="0.6509" style="stop-color:#C6EC71"/>
	<stop  offset="0.844" style="stop-color:#B7E257"/>
	<stop  offset="1" style="stop-color:#A8D73D"/>
</linearGradient>
<path style="fill:url(#SVGID_2_);" d="M9,19.9H2c-0.6,0-1-0.7-1-1.2v-15c0-0.6,0.4-0.8,1-0.8h20c0.6,0,1,0.2,1,0.8v15
	c0,0.6-0.4,1.2-1,1.2H10.6"/>
<linearGradient id="SVGID_3_" gradientUnits="userSpaceOnUse" x1="12" y1="21.1006" x2="12" y2="6.0996" gradientTransform="matrix(1 0 0 -1 0 25)">
	<stop  offset="0" style="stop-color:#B3E810"/>
	<stop  offset="1" style="stop-color:#90C60D"/>
</linearGradient>
<polygon style="fill:url(#SVGID_3_);" points="10,18.9 2,18.9 2,3.9 22,3.9 22,18.9 10.2,18.9 "/>
<g>
	<path style="fill:#FFFFFF;" d="M7.75,17.027c-1.197,0.557-2.176-0.066-2.176-1.387v-8.4c0-1.32,0.984-1.956,2.188-1.413
		l10.024,4.523c1.203,0.543,1.209,1.443,0.012,2L7.75,17.027z"/>
</g>
</svg>
